<?xml version="1.0" encoding="UTF-8" standalone="no"?>
<svg xmlns="http://www.w3.org/2000/svg" viewBox="0 0 128 128">
  <path fill="#F7A80D" d="M38.089 77.466l-11.4 4.896 10.559 4.514 12.241-4.514-11.4-4.896zm-17.138 6.12l-.382 22.034 16.679 7.345V90.089l-16.297-6.503zm34.276 0l-15.073 5.739V110.9l15.073-6.121V83.586zm17.979-68.551L61.73 19.931l10.635 4.515 12.241-4.515-11.4-4.896zm-15.914 6.503v22.034l14.231 4.132.459-20.046-14.69-6.12zm31.828 1.224L75.654 28.5v21.652l13.466-6.121V22.762zM19.306 46.047L6.268 42.386l10.558 6.043 14.691-6.043-12.211-6.121zm-13.772 6.993l-.765 22.034 16.679 9.723V64.128L5.534 53.04zm35.114 2.755l-16.297 7.345v20.881l16.297-9.342V62.795zm22.646-14.375l-11.399 4.896 10.558 4.515 12.241-4.515-11.4-4.896zm-17.138 6.121l-.382 22.034 16.679 7.345V90.089l-16.297-6.503zm34.275 0l-15.072 5.738V110.9l15.072-6.121V83.586zm-32.124-39.253L38.089 38.657l10.558 4.514 12.241-4.514-11.399-4.896zm-15.914 6.502v22.034l14.231 4.132.459-20.046-14.69-6.12zm31.828 1.225L75.654 28.5v21.652l13.466-6.121V22.762z"/>
</svg>
