<?xml version="1.0" encoding="UTF-8" standalone="no"?>
<svg xmlns="http://www.w3.org/2000/svg" viewBox="0 0 800 800">
  <path fill="#EA4335" d="M399.7 168.8c73.9 0 137.1 45.3 163.4 109.6l-41.6 24c-18.8-51.3-68-88-121.8-88-74.2 0-134.4 60.2-134.4 134.4 0 74.2 60.2 134.4 134.4 134.4 53.8 0 103-36.7 121.8-88l41.6 24c-26.3 64.3-89.5 109.6-163.4 109.6-97.7 0-177-79.3-177-177s79.3-177 177-177z"/>
  <path fill="#4285F4" d="M628.5 348.8c0-18.8-1.5-37.6-4.5-56l-224.3 0v84h128.3c-5.5 29.5-22.5 54.5-47.9 71.3v59.3h77.7c45.5-41.9 70.7-103.6 70.7-158.6z"/>
  <path fill="#FBBC05" d="M399.7 607.8c65.1 0 119.7-21.5 159.6-58.2l-77.7-59.3c-21.5 14.4-49.1 22.9-81.9 22.9-63 0-116.3-42.5-135.4-99.7l-80.2 61.6c39.6 78.7 121.2 132.7 215.6 132.7z"/>
  <path fill="#34A853" d="M264.3 413.5c-4.8-14.4-7.5-29.8-7.5-45.7 0-15.9 2.7-31.3 7.5-45.7l-80.2-61.6c-16.2 32.1-25.4 68.5-25.4 107.3 0 38.8 9.2 75.2 25.4 107.3l80.2-61.6z"/>
</svg>
