<?xml version="1.0" encoding="UTF-8" standalone="no"?>
<svg xmlns="http://www.w3.org/2000/svg" viewBox="0 0 128 128">
  <path fill="#EA4335" d="M80.6 40.3h.4l-.2-.4 14.6-14.6 1 .3C106 35 112 46.8 112 60c0 1.4-.1 2.8-.2 4.2-8.8-.1-29.3-.6-45.9-.6-8.7 0-14.3.2-17.9.4 0-1.3-.1-2.7-.1-4 0-12.6 5.2-23.9 13.7-32l14.4 14.4-.4-.1c1.3-1.4 3.2-2.3 5.3-2.3 4 0 7.3 3.3 7.3 7.3 0 .5-.1 1.1-.2 1.6-2.9-.1-5.5-2.7-5.5-5.6-.1-2 1.1-3.9 2.8-5z"/>
  <path fill="#4285F4" d="M112 60c0 4.7-.7 9.3-2 13.6-2.1-.4-4.1-1.3-5.8-2.6-2.5-1.8-4.4-4.5-5-7.5-.3-1.1-.4-2.3-.4-3.5 0-1.1.1-2.2.4-3.3.5-2 1.5-3.7 2.8-5.2 1.5-1.7 3.5-3 5.7-3.7 1.2-.4 2.4-.6 3.7-.6 1.2 0 2.3.2 3.4.5-1.5 4.2-2.4 8.7-2.8 13.3z"/>
  <path fill="#34A853" d="M104.2 71c-1.6 3.3-3.9 6.3-6.5 8.9-1.4 1.4-3 2.7-4.7 3.8-1.7 1.1-3.5 2.1-5.3 2.9-3.7 1.5-7.8 2.4-12 2.4-8.6 0-16.4-3.4-22.2-9-1.8-1.7-3.4-3.7-4.7-5.8 3.4-1.3 7.1-2.3 11-2.9 1.3-.2 2.6-.4 4-.5 1.9-.1 3.9-.2 5.9-.2 1.9 0 3.8 0 5.7.1 3.7.1 7.3.4 10.9.7 4.3.4 8.5 1 12.6 1.7 1.9.3 3.7.6 5.3.9z"/>
  <path fill="#FBBC05" d="M104.2 71c-1.6 3.3-3.9 6.3-6.5 8.9-1.4 1.4-3 2.7-4.7 3.8-1.7 1.1-3.5 2.1-5.3 2.9-3.7 1.5-7.8 2.4-12 2.4-8.6 0-16.4-3.4-22.2-9-1.8-1.7-3.4-3.7-4.7-5.8 3.4-1.3 7.1-2.3 11-2.9 1.3-.2 2.6-.4 4-.5 1.9-.1 3.9-.2 5.9-.2 1.9 0 3.8 0 5.7.1 3.7.1 7.3.4 10.9.7 4.3.4 8.5 1 12.6 1.7 1.9.3 3.7.6 5.3.9z"/>
  <path fill="#4285F4" d="M98.8 47.6c.4 1.7.6 3.5.6 5.3 0 1.4-.1 2.8-.4 4.2-.5 3-1.8 5.7-3.7 7.9-1.4 1.6-3.2 2.9-5.1 3.7-1.1.5-2.3.9-3.5 1.1-1.1.2-2.3.3-3.5.3-4 0-7.3-3.3-7.3-7.3 0-1.1.2-2.1.6-3.1.8-1.8 2.3-3.2 4.1-3.9.9-.4 1.8-.6 2.8-.6h.2c-.1-1.2.1-2.5.6-3.6.5-1.1 1.3-2 2.3-2.7 1.2-.8 2.6-1.3 4.1-1.3 2.9 0 5.5 1.7 6.7 4.2.5 1 .9 2.1 1.1 3.2.2.9.3 1.7.4 2.6z"/>
  <path fill="#EA4335" d="M76.7 67.1c-2.4 0-4.8-.4-7.1-1.2-1.3-.5-2.6-1.1-3.8-1.8-2.3-1.4-4.4-3.2-6-5.3-1.6-2.1-2.9-4.5-3.7-7.1-.8-2.6-1.2-5.3-1.2-8.1 0-4.1.9-8 2.5-11.6 1.6-3.5 3.9-6.6 6.8-9.2 5.7-5.2 13.2-8.4 21.5-8.4 6.5 0 12.5 1.9 17.6 5.2L89.7 33.2C85.9 30.8 81.3 29.4 76.6 29.4c-16.8 0-30.4 13.6-30.4 30.4 0 16.8 13.6 30.4 30.4 30.4 14.3 0 26.3-9.8 29.6-23.1-3.7-.7-7.4-1.2-11.2-1.6-2.2-.2-4.3-.4-6.5-.5-1.2-.1-2.4-.1-3.6-.1-2.8 0-5.5.1-8.2.2z"/>
</svg>
